<?xml version="1.0" standalone="no"?>
<!DOCTYPE svg PUBLIC "-//W3C//DTD SVG 20010904//EN"
 "http://www.w3.org/TR/2001/REC-SVG-20010904/DTD/svg10.dtd">
<svg version="1.0" xmlns="http://www.w3.org/2000/svg"
 width="565.000000pt" height="438.000000pt" viewBox="0 0 565.000000 438.000000"
 preserveAspectRatio="xMidYMid meet">
<metadata>
Created by potrace 1.16, written by Peter Selinger 2001-2019
</metadata>
<g transform="translate(0.000000,438.000000) scale(0.100000,-0.100000)"
fill="#000000" stroke="none">
<path d="M2690 4306 c-85 -19 -130 -45 -201 -115 -56 -56 -70 -78 -95 -146
-79 -217 7 -436 212 -536 65 -32 74 -34 179 -34 102 0 114 2 170 30 87 44 183
145 215 226 38 99 40 200 4 297 -58 160 -151 245 -300 277 -81 17 -110 17
-184 1z m323 -175 c72 -40 111 -171 73 -241 -13 -22 -11 -27 11 -57 27 -36 23
-39 -26 -22 -27 10 -43 8 -87 -7 -51 -17 -56 -17 -108 -1 -33 11 -63 28 -76
44 -11 14 -21 24 -23 22 -1 -2 -8 -15 -15 -29 -29 -58 -138 -97 -202 -72 -18
7 -36 4 -68 -9 -24 -11 -42 -16 -40 -12 2 5 10 21 18 36 10 22 11 33 3 46 -6
10 -17 37 -23 61 -45 167 162 306 276 185 l34 -37 20 24 c11 12 19 28 20 33 0
12 50 44 88 56 35 10 85 3 125 -20z"/>
<path d="M1435 3756 c-114 -32 -218 -120 -269 -226 -29 -62 -31 -71 -31 -185
1 -133 8 -156 84 -258 68 -91 206 -157 328 -157 179 0 353 133 398 305 54 208
-39 406 -233 498 -76 36 -196 46 -277 23z m217 -338 c3 -20 10 -23 47 -25 35
-1 44 2 48 18 3 11 11 18 17 16 15 -5 20 -260 6 -287 -10 -18 -21 -20 -148
-20 l-137 -1 -35 -45 c-46 -59 -74 -58 -78 4 -2 33 -7 42 -21 42 -36 0 -42 22
-39 166 2 90 7 139 14 141 6 2 14 -5 16 -15 4 -15 15 -19 47 -19 36 0 41 2 41
23 0 24 1 24 109 24 106 0 110 -1 113 -22z"/>
<path d="M3864 3721 c-64 -25 -141 -82 -174 -128 -17 -23 -38 -49 -46 -57 -50
-51 -68 -224 -35 -331 28 -90 126 -200 217 -246 234 -119 512 0 589 250 7 22
1 19 -46 -20 -73 -62 -108 -74 -209 -74 -91 0 -133 15 -193 70 -105 94 -137
342 -63 494 14 30 26 56 26 58 0 6 -27 0 -66 -16z"/>
<path d="M4041 3388 c-68 -34 -93 -114 -48 -156 27 -26 171 -49 231 -38 89 17
71 147 -26 195 -56 27 -101 27 -157 -1z"/>
<path d="M2662 2906 c-152 -50 -232 -233 -232 -534 0 -102 14 -259 25 -270 3
-3 97 19 103 24 2 1 -13 36 -33 77 -36 73 -42 116 -18 125 7 2 17 -8 23 -22 5
-14 13 -26 18 -26 4 0 13 41 19 91 23 179 106 278 233 279 52 0 65 -7 74 -37
4 -12 31 -44 60 -70 28 -26 61 -63 71 -80 17 -29 18 -37 6 -70 -8 -21 -22 -46
-32 -56 -11 -10 -19 -22 -19 -27 0 -19 -61 -96 -94 -120 -20 -14 -36 -28 -36
-32 0 -9 188 -63 196 -55 2 2 9 64 16 137 28 321 -47 585 -188 655 -49 24
-136 29 -192 11z"/>
<path d="M664 2610 c-206 -43 -354 -230 -342 -433 10 -169 116 -313 277 -377
75 -29 208 -28 282 3 154 64 242 171 270 330 33 181 -74 375 -247 447 -77 32
-174 44 -240 30z m336 -320 l0 -150 -130 0 -130 0 0 -75 0 -75 -140 0 -140 0
0 95 0 95 65 0 65 0 0 130 0 130 205 0 205 0 0 -150z m-62 -247 l3 -53 -75 0
-76 0 0 55 0 56 73 -3 72 -3 3 -52z"/>
<path d="M704 2379 c-4 -6 -10 -25 -14 -43 -4 -17 -11 -39 -15 -48 -5 -13 -2
-18 11 -19 17 0 17 -1 -1 -9 -27 -11 -48 -37 -40 -50 7 -12 171 -14 179 -1 7
10 -13 35 -39 49 -11 6 -14 12 -8 12 15 0 7 87 -10 108 -12 15 -53 16 -63 1z"/>
<path d="M4795 2610 c-115 -24 -237 -116 -293 -221 -113 -211 -12 -485 215
-579 140 -58 287 -39 409 54 174 133 215 378 94 566 -84 131 -275 212 -425
180z m161 -217 c8 -3 14 -14 14 -25 0 -15 5 -19 19 -15 11 3 26 -2 35 -12 25
-27 56 -104 56 -138 0 -28 -3 -33 -24 -33 -23 0 -24 -2 -15 -29 13 -37 -5 -67
-63 -107 -35 -24 -51 -29 -104 -29 -53 0 -68 4 -105 30 -55 39 -78 71 -90 126
-8 36 -7 45 6 55 13 10 10 11 -19 11 -33 -1 -36 -4 -47 -49 -9 -39 -15 -48
-33 -48 -40 0 -66 27 -66 70 0 60 19 72 98 64 37 -4 70 -12 74 -18 6 -8 8 -7
8 1 0 6 -4 15 -10 18 -27 17 66 119 118 131 15 3 32 7 37 9 12 5 91 -4 111
-12z"/>
<path d="M2312 1845 c-7 -22 -19 -101 -28 -175 -9 -74 -21 -141 -27 -148 -15
-19 -11 -71 8 -92 21 -23 73 -36 87 -22 11 11 -8 401 -22 451 -7 25 -7 25 -18
-14z"/>
<path d="M691 1369 c-85 -11 -181 -60 -237 -123 -165 -182 -147 -457 39 -614
77 -64 142 -86 262 -86 116 -1 169 15 252 77 64 48 96 89 135 175 65 142 34
316 -79 441 -58 65 -149 117 -223 126 -25 4 -54 8 -65 9 -11 2 -49 -1 -84 -5z
m157 -254 c26 -29 32 -43 32 -80 0 -38 -6 -51 -36 -85 -35 -39 -37 -48 -19
-92 5 -13 2 -18 -9 -18 -9 0 -16 -4 -16 -10 0 -5 6 -10 14 -10 7 0 19 -7 26
-15 11 -13 -1 -15 -95 -15 l-107 0 7 -75 c6 -72 6 -75 -14 -75 -19 0 -21 6
-21 67 0 55 4 71 22 90 12 13 31 23 42 23 20 1 20 1 3 14 -15 12 -16 20 -7 61
9 41 8 49 -10 72 -12 16 -20 41 -20 64 0 28 -4 39 -15 39 -23 0 -19 -66 6
-106 24 -40 23 -41 -28 -11 -59 33 -106 76 -100 91 3 7 34 32 68 55 45 30 71
41 88 38 13 -3 38 1 55 9 46 21 95 9 134 -31z"/>
<path d="M720 1105 c-10 -13 -9 -19 5 -35 18 -20 18 -20 -13 -14 -29 6 -32 4
-32 -17 0 -41 15 -55 43 -42 20 9 30 8 57 -8 18 -11 33 -19 35 -17 12 15 25
51 25 70 -1 57 -87 102 -120 63z"/>
<path d="M4793 1368 c-160 -18 -306 -157 -340 -326 -63 -310 213 -567 522
-487 300 79 405 475 183 695 -98 97 -216 135 -365 118z m75 -240 c8 -8 12 -48
12 -116 0 -95 -2 -104 -20 -109 -14 -4 -20 -14 -20 -33 0 -41 -23 -43 -60 -5
-33 34 -34 34 -134 37 l-101 3 -3 104 c-2 67 1 108 9 117 15 19 299 20 317 2z
m262 -93 c6 -8 10 -40 8 -77 l-3 -63 -69 -3 c-59 -3 -72 -6 -88 -28 -21 -26
-38 -24 -38 6 0 10 -7 20 -15 24 -18 7 -22 125 -4 143 16 16 195 15 209 -2z"/>
<path d="M4627 1083 c-11 -11 -8 -23 7 -23 8 0 16 -15 20 -37 5 -30 2 -41 -14
-54 -16 -14 -17 -19 -7 -34 12 -15 14 -14 26 12 8 16 16 23 18 16 3 -7 16 -13
29 -13 16 0 23 4 18 11 -4 7 -1 10 7 7 7 -2 16 -15 19 -27 l5 -23 19 21 c11
12 16 22 13 22 -4 1 -10 2 -14 3 -22 4 -28 18 -25 55 3 32 8 41 23 41 10 0 19
4 19 9 0 12 -32 24 -39 14 -8 -11 -102 -13 -95 -2 6 10 -19 12 -29 2z"/>
</g>
</svg>
